<svg xmlns="http://www.w3.org/2000/svg" viewBox="0 0 1024 1024" role="img" aria-label="Meta Lab brain icon">
  <rect width="1024" height="1024" fill="#fcf6ef"/>
  <g transform="translate(112 112) scale(8)" fill="none">
    <path d="M28 62 Q14 60 14 46 Q14 34 24 30 Q24 18 36 18 Q40 12 50 14 Q60 12 64 18 Q76 18 76 30 Q86 34 86 46 Q86 60 72 62 Q68 70 60 70 Q54 74 50 72 Q46 74 40 70 Q32 70 28 62Z"
      stroke="#2b180a" stroke-width="2.6" stroke-linejoin="round"/>
    <path d="M30 44 Q36 38 36 48 Q36 54 30 56" stroke="#6b5a4a" stroke-width="1.4" stroke-linecap="round" opacity="0.45"/>
    <path d="M70 44 Q64 38 64 48 Q64 54 70 56" stroke="#6b5a4a" stroke-width="1.4" stroke-linecap="round" opacity="0.45"/>
    <path d="M50 16 Q50 28 50 42" stroke="#6b5a4a" stroke-width="1.2" stroke-linecap="round" opacity="0.28"/>
    <circle cx="50" cy="44" r="18" stroke="#2b180a" stroke-width="3" fill="#fcf6ef" fill-opacity="0.55"/>
    <line x1="63" y1="57" x2="76" y2="72" stroke="#2b180a" stroke-width="4.5" stroke-linecap="round"/>
    <path d="M40 40 Q45 34 50 40 Q55 34 60 40" stroke="#2b180a" stroke-width="1.8" stroke-linecap="round" opacity="0.65"/>
    <path d="M50 34 Q50 40 50 50" stroke="#6b5a4a" stroke-width="1.2" stroke-linecap="round" opacity="0.35"/>
    <path d="M40 50 Q50 60 60 50" stroke="#2b180a" stroke-width="2.2" stroke-linecap="round"/>
  </g>
</svg>
